<svg width="3499" height="480" viewBox="0 0 3499 480" fill="none" xmlns="http://www.w3.org/2000/svg">
<path d="M177.6 389.4C219.6 389.4 251.4 358.2 251.4 306C251.4 253.8 219.6 222.6 177.6 222.6C135 222.6 103.2 253.8 103.2 306C103.2 358.2 135 389.4 177.6 389.4ZM177.6 132.6C280.8 132.6 354.6 204.6 354.6 306C354.6 407.4 280.8 479.4 177.6 479.4C73.8 479.4 0 407.4 0 306C0 204.6 73.8 132.6 177.6 132.6Z" fill="#2D2D2D"/>
<path d="M396.375 468V0H494.775V247.8C494.775 256.2 496.575 261 500.775 262.8C508.575 265.8 514.575 260.4 520.575 253.2L615.375 144H737.775L629.775 265.2C623.775 271.8 620.175 279.6 620.175 287.4C620.175 295.2 623.175 301.8 628.575 309L755.775 468H630.375L557.775 371.4C544.575 352.8 530.175 348 515.175 353.4C500.175 358.8 494.775 372.6 494.775 390.6V468H396.375Z" fill="#2D2D2D"/>
<path d="M785.536 0H883.936V468H785.536V0Z" fill="#2D2D2D"/>
<path d="M1156.08 456.6C1156.08 451.2 1154.88 447.6 1150.68 445.8C1146.48 444.6 1141.08 447 1134.48 451.8C1113.48 468 1085.88 479.4 1048.08 479.4C985.083 479.4 929.883 447.6 929.883 381C929.883 311.4 985.683 277.8 1052.88 273.6L1102.68 270.6C1129.08 268.8 1144.08 261 1146.48 245.4C1150.08 223.8 1133.88 206.4 1093.68 206.4C1057.08 206.4 1034.28 222.6 1030.68 256.8H938.283C944.883 169.8 1012.08 132.6 1093.08 132.6C1175.88 132.6 1243.08 168 1243.08 260.4V468H1156.08V456.6ZM1028.88 375.6C1028.88 399 1047.48 411 1073.88 411C1100.28 411 1126.08 400.2 1138.68 379.8C1145.28 369.6 1151.88 345.6 1142.88 337.8C1139.28 334.2 1133.28 333.6 1124.88 334.2L1075.08 338.4C1046.28 340.2 1028.88 353.4 1028.88 375.6Z" fill="#2D2D2D"/>
<path d="M1302.82 0H1401.22V147.6C1401.22 154.8 1403.02 158.4 1407.22 160.2C1412.02 162 1419.22 159 1426.42 154.2C1441.42 144.6 1466.62 132.6 1502.62 132.6C1586.02 132.6 1654.42 201 1654.42 306C1654.42 411 1586.02 479.4 1505.02 479.4C1463.62 479.4 1439.02 465.6 1421.62 452.4C1415.62 447.6 1410.82 446.4 1407.22 447.6C1403.62 448.8 1401.22 453 1401.22 459.6V468H1302.82V0ZM1404.22 306.6C1404.22 357.6 1437.22 387.6 1478.02 387.6C1518.22 387.6 1551.22 358.2 1551.22 306.6C1551.22 254.4 1518.22 224.4 1478.02 224.4C1436.62 224.4 1404.22 255.6 1404.22 306.6Z" fill="#2D2D2D"/>
<path d="M1681.85 367.8H1786.25V468H1681.85V367.8Z" fill="#2D2D2D"/>
<path d="M1815.07 144H1915.27L1957.87 310.8C1960.87 322.8 1965.67 325.8 1971.67 325.8C1977.07 325.8 1980.67 322.2 1984.27 311.4L2035.27 144H2118.07L2170.87 313.2C2174.47 324.6 2178.07 328.2 2184.07 328.2C2189.47 328.2 2194.27 323.4 2196.67 313.2L2238.67 144H2337.07L2236.87 468H2146.87L2091.67 295.8C2088.67 286.2 2083.87 280.8 2076.67 280.8C2069.47 280.8 2065.27 286.2 2062.27 295.8L2007.67 468H1916.47L1815.07 144Z" fill="#2D2D2D"/>
<path d="M2513.73 389.4C2555.73 389.4 2587.53 358.2 2587.53 306C2587.53 253.8 2555.73 222.6 2513.73 222.6C2471.13 222.6 2439.33 253.8 2439.33 306C2439.33 358.2 2471.13 389.4 2513.73 389.4ZM2513.73 132.6C2616.93 132.6 2690.73 204.6 2690.73 306C2690.73 407.4 2616.93 479.4 2513.73 479.4C2409.93 479.4 2336.13 407.4 2336.13 306C2336.13 204.6 2409.93 132.6 2513.73 132.6Z" fill="#2D2D2D"/>
<path d="M2830.91 310.8V468H2732.51V144H2824.91V161.4C2824.91 171.6 2828.51 175.8 2835.11 175.8C2842.31 175.8 2844.11 172.8 2852.51 163.2C2866.91 147 2884.31 139.2 2914.91 139.2H2958.11V235.2H2895.11C2845.91 235.2 2830.91 271.8 2830.91 310.8Z" fill="#2D2D2D"/>
<path d="M3002.72 0H3101.12V468H3002.72V0Z" fill="#2D2D2D"/>
<path d="M3498.67 0V468H3400.27V459.6C3400.27 453 3397.87 448.8 3394.27 447.6C3390.67 446.4 3385.87 447.6 3379.87 452.4C3362.47 465.6 3337.87 479.4 3296.47 479.4C3215.47 479.4 3147.07 411 3147.07 306C3147.07 201 3215.47 132.6 3298.87 132.6C3334.87 132.6 3360.07 144.6 3375.07 154.2C3382.27 159 3389.47 162 3394.27 160.2C3398.47 158.4 3400.27 154.8 3400.27 147.6V0H3498.67ZM3397.27 306.6C3397.27 255.6 3364.87 224.4 3323.47 224.4C3283.27 224.4 3250.27 254.4 3250.27 306.6C3250.27 358.2 3283.27 387.6 3323.47 387.6C3364.27 387.6 3397.27 357.6 3397.27 306.6Z" fill="#2D2D2D"/>
</svg>
